# xmcd
#
# Track frame offsets:
#	150
#	17950
#	36367
#	52172
#	70525
#	82237
#	98092
#	113992
#	130102
#	148565
#
# Disc length: 2221 seconds
#
# Revision: 0
# Processed by: cddbd v1.4PL0 Copyright (c) Steve Scherf et al.
# Submitted via: audiograbber 1.80.04
#
DISCID=8d08ab0a
DTITLE=Michelle Wright - Do Right By Me
DYEAR=1900
DGENRE=
TTITLE0=The Rhythm Of Romance
TTITLE1=Do Right By Me
TTITLE2=I Want To Count On You
TTITLE3=I Wish I Were Only Lonely
TTITLE4=A Good Man Is Hard To Find
TTITLE5=Rock Me Gently
TTITLE6=New Fool At An Old Game
TTITLE7=With A Love Like Yours
TTITLE8=I Don't Want To Wonder
TTITLE9=Reaching For The Stars
EXTD=
EXTT0=
EXTT1=
EXTT2=
EXTT3=
EXTT4=
EXTT5=
EXTT6=
EXTT7=
EXTT8=
EXTT9=
PLAYORDER=
